<svg width="481" height="481" viewBox="0 0 481 481" fill="none" xmlns="http://www.w3.org/2000/svg">
<path fill-rule="evenodd" clip-rule="evenodd" d="M0 240.5C0 272.083 6.22071 303.357 18.307 332.535C30.3932 361.714 48.1083 388.227 70.4408 410.559C92.7733 432.892 119.286 450.607 148.465 462.693C177.643 474.779 208.917 481 240.5 481C272.083 481 303.357 474.779 332.535 462.693C361.714 450.607 388.227 432.892 410.559 410.559C432.892 388.227 450.607 361.714 462.693 332.535C474.779 303.357 481 272.083 481 240.5C481 176.715 455.662 115.543 410.559 70.4408C365.457 25.3383 304.285 0 240.5 0C176.715 0 115.543 25.3383 70.4408 70.4408C25.3383 115.543 0 176.715 0 240.5ZM399.907 380.574C396.906 383.99 393.787 387.318 390.552 390.552C359.866 421.239 320.749 441.556 278.646 449.25C299.048 429.936 315.241 395.256 325.386 351.6C351.353 357.353 374.962 366.142 394.705 377.469C396.476 378.487 398.21 379.522 399.907 380.574ZM417.189 358.028C437.167 327.992 449.244 293.22 452.065 256.98H336.995C336.319 280.415 334.206 302.892 330.819 323.847C359.766 330.204 386.282 340.059 408.722 352.918C411.59 354.547 414.413 356.251 417.189 358.028ZM303.467 318.99C306.595 299.748 308.651 278.891 309.344 256.98H171.727C172.467 280.361 174.759 302.541 178.248 322.84C201.631 318.058 226.546 315.527 252.139 315.527C269.647 315.527 286.847 316.709 303.467 318.99ZM184.019 350.523C197.128 403.366 218.778 437.918 240.536 437.918C262.803 437.918 284.957 401.73 297.958 346.782C283.144 344.828 267.791 343.811 252.139 343.811C228.432 343.811 205.45 346.152 184.019 350.523ZM157.065 357.333C167.273 398.302 182.934 430.808 202.443 449.266C160.306 441.585 121.156 421.26 90.4478 390.552C90.3877 390.492 90.3276 390.432 90.2676 390.372C90.9586 389.837 91.659 389.307 92.369 388.782C109.777 375.696 131.897 365.004 157.065 357.333ZM151.215 329.57C147.265 307.004 144.815 282.563 144.077 256.98H28.9345C32.1086 297.748 46.9953 336.658 71.6675 369.059C72.905 368.073 74.1652 367.096 75.4472 366.127C96.0896 350.618 122.009 338.215 151.215 329.57ZM28.6223 228.697H143.961C144.485 203.207 146.704 178.795 150.411 156.175C121.533 147.537 95.8998 135.213 75.4472 119.833C73.38 118.281 71.3499 116.68 69.3586 115.032C45.1482 148.055 30.9143 187.524 28.6223 228.697ZM87.5352 93.4179C89.0959 94.6983 90.7061 95.962 92.369 97.2059C109.517 110.097 131.237 120.664 155.94 128.309C166.102 85.1568 182.199 50.8872 202.436 31.7349C160.301 39.4176 121.154 59.7416 90.4478 90.4478C89.4663 91.4293 88.4954 92.4194 87.5352 93.4179ZM177.447 162.982C174.188 183.322 172.126 205.446 171.6 228.697H309.471C308.979 206.927 307.14 186.146 304.233 166.891C287.375 169.243 269.916 170.461 252.139 170.461C226.254 170.461 201.062 167.871 177.447 162.982ZM299.069 139.053C283.912 141.106 268.183 142.177 252.139 142.177C228.009 142.177 204.63 139.752 182.874 135.23C195.842 79.7119 218.131 43.0766 240.536 43.0766C263.451 43.0766 286.245 81.3999 299.069 139.053ZM331.572 161.971C334.732 182.946 336.631 205.37 337.111 228.697H452.378C450.344 192.169 438.911 156.982 419.452 126.447C416.003 128.718 412.425 130.916 408.722 133.041C386.477 145.804 360.226 155.607 331.572 161.971ZM402.697 103.665C400.083 105.361 397.417 106.98 394.705 108.519C375.234 119.675 352.002 128.379 326.457 134.138C316.401 88.2578 299.785 51.7615 278.653 31.7511C320.753 39.4461 359.868 59.7631 390.552 90.4478C394.801 94.6968 398.852 99.1075 402.697 103.665Z" fill="black" fill-opacity="0.04"/>
</svg>
